<svg id="Lager_1" data-name="Lager 1" xmlns="http://www.w3.org/2000/svg" viewBox="0 0 528.61 304.26"><defs><style>.cls-1{fill:#2a4765;}.cls-2{fill:#fff;}</style></defs><path class="cls-1" d="M442.27,196V295.5c0,23.75-73,43-163,43s-163-19.25-163-43V193.35L282.77,257Z" transform="translate(-17.8 -34.24)"/><polygon class="cls-1" points="522.94 101.15 264.47 200 0 98.85 258.47 0 522.94 101.15"/><polygon class="cls-1" points="528.6 270.33 515.58 281.26 500.2 262.93 500.2 281.76 483.2 281.76 483.2 262.93 467.82 281.26 454.8 270.33 483.2 236.48 483.2 108.76 500.2 108.76 500.2 236.48 528.6 270.33"/><rect class="cls-1" x="515" y="265" width="17" height="51" transform="translate(-82.05 370.22) rotate(-40)"/><path class="cls-2" d="M354.07,139.46l-9,33.42-122.5-32.82a32.41,32.41,0,0,0,9-33.42Z" transform="translate(-17.8 -34.24)"/><path class="cls-2" d="M173,132.21a32.44,32.44,0,0,1-2.89-6.59l.74.2h0l19.4,5.2,14.2-14.2-5.2-19.39-19.4-5.2-.13.14-.63-.17a32.38,32.38,0,1,1-6.09,40Z" transform="translate(-17.8 -34.24)"/><path class="cls-2" d="M353.43,138.16a25,25,0,1,0,34.18,9.16A25,25,0,0,0,353.43,138.16Zm27.5,25.68-11,11-15-4-4-15,11-11,15,4Z" transform="translate(-17.8 -34.24)"/></svg>